# xmcd
#
# Track frame offsets: 
#        150
#        13819
#        31557
#        46032
#        64107
#        77645
#        91689
#        105911
#        115483
#        125271
#        144668
#        157868
#        175147
#        192791
#        211541
#        221385
#        235954
#        245976
#        258483
#        270080
#        289458
#        299621
#        312896
#        326575
#        334835
#
# Disc length: 4626 seconds
#
# Revision: 0
# Processed by: cddbd v1.5.2PL0 Copyright (c) Steve Scherf et al.
# Submitted via: ExactAudioCopyFreeDBPlugin 1.0
#
DISCID=5b121019
DTITLE=Lightnin' Hopkins - Lightnin' Strikes and Lightnin' Hopkins
DYEAR=1900
DGENRE=Blues
TTITLE0=Got Me A Louisiana Woman
TTITLE1=Want To Come Home
TTITLE2=Please Don't Quit Me
TTITLE3=Devil Is Watching You
TTITLE4=Rollin' And Rollin'
TTITLE5=War Is Starting Again
TTITLE6=Walkin' Round In Circles
TTITLE7=Mary Lou
TTITLE8=Heavy Snow
TTITLE9=Coon Is Hard To Catch
TTITLE10=Penitentiary Blues
TTITLE11=Bad Luck And Trouble
TTITLE12=Come Go Home With Me
TTITLE13=Trouble Stay Away From My Door
TTITLE14=See That My Grave Is Kept Clean
TTITLE15=Goin' Back To Florida
TTITLE16=Reminiscences Of Blind Lemon
TTITLE17=Fan It
TTITLE18=Tell Me, Baby
TTITLE19=She's Mine
TTITLE20=Early Mornin' Boogie
TTITLE21=Trouble In Mind
TTITLE22=Mojo Hand
TTITLE23=So Long Baby
TTITLE24=The Foot Race Is On
EXTD=
EXTT0=
EXTT1=
EXTT2=
EXTT3=
EXTT4=
EXTT5=
EXTT6=
EXTT7=
EXTT8=
EXTT9=
EXTT10=
EXTT11=
EXTT12=
EXTT13=
EXTT14=
EXTT15=
EXTT16=
EXTT17=
EXTT18=
EXTT19=
EXTT20=
EXTT21=
EXTT22=
EXTT23=
EXTT24=
PLAYORDER=
